<svg xmlns="http://www.w3.org/2000/svg" xmlns:xlink="http://www.w3.org/1999/xlink" xmlns:lucid="lucid" width="1520" height="492.25"><g transform="translate(520 -123)" lucid:page-tab-id="0_0"><path d="M-1000 0h2000v1000h-2000z" fill="#fff"/><path d="M160 272a6 6 0 0 1 6-6h488a6 6 0 0 1 6 6v277a6 6 0 0 1-6 6H166a6 6 0 0 1-6-6z" stroke="#000" stroke-width="2" fill="#fff3d9"/><path d="M-300 272a6 6 0 0 1 6-6h428a6 6 0 0 1 6 6v202a6 6 0 0 1-6 6h-428a6 6 0 0 1-6-6z" stroke="#000" stroke-width="2" fill="#f2f2ff"/><path d="M237.5 187h5.72m5.72 0h11.45m5.7 0h11.46m5.72 0H289a6 6 0 0 1 6 6v5.2m0 5.2v10.37m0 5.2v10.38m0 5.2v10.37m0 5.2v10.38m0 5.2v10.38m0 5.2v10.37m0 5.2v10.38m0 5.2v5.2" stroke="#3a414a" fill="none"/><path d="M237.5 187.47h-.5v-.94h.5z" stroke="#3a414a" stroke-width=".05" fill="#3a414a"/><path d="M295 332.38l-4.63-14.26h9.26z" stroke="#3a414a" fill="#3a414a"/><path d="M-40 286a6 6 0 0 1 6-6h148a6 6 0 0 1 6 6v108a6 6 0 0 1-6 6H-34a6 6 0 0 1-6-6z" stroke="#000" stroke-width="2" fill="#fff"/><use xlink:href="#a" transform="matrix(1,0,0,1,-28,292) translate(15.086588541666671 57.52777777777778)"/><use xlink:href="#b" transform="matrix(1,0,0,1,-28,292) translate(68.33094618055556 57.52777777777778)"/><path d="M66.67 278.5v-4.75m0-4.75v-9.5m0-4.75v-9.5m0-4.75V231m0-4.75v-9.5m0-4.75v-9.5m0-4.75V193a6 6 0 0 1 6-6h4.64m4.66 0h9.3m4.65 0h9.3m4.65 0h4.65" stroke="#3a414a" fill="none"/><path d="M67.14 279h-.95v-.5h.94zM115 187.47h-.5v-.94h.5z" stroke="#3a414a" stroke-width=".05" fill="#3a414a"/><path d="M-519 286a6 6 0 0 1 6-6h168a6 6 0 0 1 6 6v114c-30.06-20.04-48.78-20.04-60.12-20.04-18 0-41.94 20.04-59.94 20.04-11.16 0-30.06 0-59.94-20.04z" stroke="#000" stroke-width="2" fill="#fff"/><use xlink:href="#c" transform="matrix(1,0,0,1,-514,285) translate(19.803602430555557 52.46527777777778)"/><path d="M-337.5 340h40.12" stroke="#3a414a" fill="none"/><path d="M-337.5 340.48h-.5v-.96h.5z" stroke="#3a414a" stroke-width=".05" fill="#3a414a"/><path d="M-282.62 340l-14.26 4.63v-9.26z" stroke="#3a414a" fill="#3a414a"/><path d="M140.5 509.33h3.5a6 6 0 0 0 6-6V409.5a6 6 0 0 1 6-6h21.62" stroke="#3a414a" fill="none"/><path d="M140.5 509.8h-.5v-.94h.5z" stroke="#3a414a" stroke-width=".05" fill="#3a414a"/><path d="M192.38 403.5l-14.26 4.63v-9.26z" stroke="#3a414a" fill="#3a414a"/><path d="M-230 499.25a6 6 0 0 1 6-6h188a6 6 0 0 1 6 6v101a6 6 0 0 1-6 6h-188a6 6 0 0 1-6-6z" fill="none"/><use xlink:href="#d" transform="matrix(1,0,0,1,-230,493.25) translate(53.771701388888886 28.279730902777775)"/><use xlink:href="#e" transform="matrix(1,0,0,1,-230,493.25) translate(155.77907986111111 28.279730902777775)"/><use xlink:href="#f" transform="matrix(1,0,0,1,-230,493.25) translate(47.581380208333314 50.86566840277777)"/><use xlink:href="#g" transform="matrix(1,0,0,1,-230,493.25) translate(129.71137152777777 50.86566840277777)"/><use xlink:href="#h" transform="matrix(1,0,0,1,-230,493.25) translate(9.945746527777743 73.45160590277779)"/><use xlink:href="#i" transform="matrix(1,0,0,1,-230,493.25) translate(83.28776041666664 73.45160590277779)"/><use xlink:href="#j" transform="matrix(1,0,0,1,-230,493.25) translate(121.97157118055554 73.45160590277779)"/><use xlink:href="#k" transform="matrix(1,0,0,1,-230,493.25) translate(35.641276041666686 96.03754340277779)"/><use xlink:href="#l" transform="matrix(1,0,0,1,-230,493.25) translate(130.28862847222223 96.03754340277779)"/><path d="M-21 499.25a6 6 0 0 1 6-6h148a6 6 0 0 1 6 6v114c-26.72-20.04-43.36-20.04-53.44-20.04-16 0-37.28 20.05-53.28 20.05-9.92 0-26.72 0-53.28-20.04z" stroke="#000" stroke-width="2" fill="#fff"/><use xlink:href="#m" transform="matrix(1,0,0,1,-16,498.25) translate(28.672960069444443 52.46527777777778)"/><use xlink:href="#n" transform="matrix(1,0,0,1,-16,498.25) translate(86.84353298611111 52.46527777777778)"/><path d="M195 341a6 6 0 0 1 6-6h188a6 6 0 0 1 6 6v125a6 6 0 0 1-6 6H201a6 6 0 0 1-6-6z" stroke="#000" stroke-width="2" fill="#fff"/><use xlink:href="#o" transform="matrix(1,0,0,1,207,347) translate(12.224175347222229 49.77777777777778)"/><use xlink:href="#p" transform="matrix(1,0,0,1,207,347) translate(97.72764756944446 49.77777777777778)"/><use xlink:href="#q" transform="matrix(1,0,0,1,207,347) translate(30.21462673611112 82.04340277777777)"/><path d="M396.5 403.5H429a6 6 0 0 1 6 6V475a6 6 0 0 0 6 6h16.62" stroke="#3a414a" fill="none"/><path d="M396.5 403.98h-.5v-.96h.5z" stroke="#3a414a" stroke-width=".05" fill="#3a414a"/><path d="M472.38 481l-14.26 4.63v-9.26z" stroke="#3a414a" fill="#3a414a"/><path d="M475 437a6 6 0 0 1 6-6h148a6 6 0 0 1 6 6v88a6 6 0 0 1-6 6H481a6 6 0 0 1-6-6z" stroke="#000" stroke-width="2" fill="#fff"/><use xlink:href="#r" transform="matrix(1,0,0,1,487,443) translate(38.06293402777778 31.02777777777778)"/><use xlink:href="#s" transform="matrix(1,0,0,1,487,443) translate(9.596137152777793 63.29340277777778)"/><path d="M475 292.58a6 6 0 0 1 6-6h148a6 6 0 0 1 6 6V396a6 6 0 0 1-6 6H481a6 6 0 0 1-6-6z" stroke="#000" stroke-width="2" fill="#fff"/><use xlink:href="#t" transform="matrix(1,0,0,1,487,298.5807291666667) translate(24.90104166666667 24.40277777777778)"/><use xlink:href="#u" transform="matrix(1,0,0,1,487,298.5807291666667) translate(35.24175347222223 56.66840277777778)"/><use xlink:href="#v" transform="matrix(1,0,0,1,487,298.5807291666667) translate(0.49782986111111427 88.93402777777777)"/><path d="M396.5 403.5H429a6 6 0 0 0 6-6v-47.2a6 6 0 0 1 6-6h16.62" stroke="#3a414a" fill="none"/><path d="M396.5 403.98h-.5v-.96h.5z" stroke="#3a414a" stroke-width=".05" fill="#3a414a"/><path d="M472.38 344.3l-14.26 4.63v-9.28z" stroke="#3a414a" fill="#3a414a"/><path d="M636.5 481h47.12" stroke="#3a414a" fill="none"/><path d="M636.5 481.48h-.5v-.96h.5z" stroke="#3a414a" stroke-width=".05" fill="#3a414a"/><path d="M698.38 481l-14.26 4.63v-9.26z" stroke="#3a414a" fill="#3a414a"/><path d="M636.5 344.3h47.12" stroke="#3a414a" fill="none"/><path d="M636.5 344.76h-.5v-.94h.5z" stroke="#3a414a" stroke-width=".05" fill="#3a414a"/><path d="M698.38 344.3l-14.26 4.63v-9.28z" stroke="#3a414a" fill="#3a414a"/><path d="M710 449a6 6 0 0 1 6-6h278a6 6 0 0 1 6 6v62a6 6 0 0 1-6 6H716a6 6 0 0 1-6-6z" fill="none"/><use xlink:href="#w" transform="matrix(1,0,0,1,710,443) translate(4.861111111111111 45.083767361111114)"/><use xlink:href="#x" transform="matrix(1,0,0,1,710,443) translate(22.22222222222222 45.083767361111114)"/><use xlink:href="#y" transform="matrix(1,0,0,1,710,443) translate(145.27994791666663 45.083767361111114)"/><path d="M236 235c0 6.63-26.86 12-60 12s-60-5.37-60-12v-96c0-6.63 26.86-12 60-12s60 5.37 60 12z" stroke="#000" stroke-width="2" fill="#fff"/><path d="M236 139c0 6.63-26.86 12-60 12s-60-5.37-60-12" stroke="#000" stroke-width="2" fill="none"/><use xlink:href="#z" transform="matrix(1,0,0,1,121,156) translate(8.640407986111107 51.09027777777778)"/><path d="M242 144a6 6 0 0 1 6-6h168a6 6 0 0 1 6 6v28a6 6 0 0 1-6 6H248a6 6 0 0 1-6-6z" fill="none"/><use xlink:href="#A" transform="matrix(1,0,0,1,242,138) translate(0 17.22222222222222)"/><use xlink:href="#B" transform="matrix(1,0,0,1,242,138) translate(0 43.034722222222214)"/><path d="M-210 426a6 6 0 0 1 6-6H24a6 6 0 0 1 6 6v48a6 6 0 0 1-6 6h-228a6 6 0 0 1-6-6z" fill="none"/><use xlink:href="#C" transform="matrix(1,0,0,1,-210,420) translate(34.04296875 39.700520833333336)"/><path d="M710 306a6 6 0 0 1 6-6h278a6 6 0 0 1 6 6v62a6 6 0 0 1-6 6H716a6 6 0 0 1-6-6z" fill="none"/><g><use xlink:href="#D" transform="matrix(1,0,0,1,710,300) translate(4.861111111111111 21.52777777777778)"/><use xlink:href="#E" transform="matrix(1,0,0,1,710,300) translate(22.22222222222222 21.52777777777778)"/><use xlink:href="#F" transform="matrix(1,0,0,1,710,300) translate(70.55121527777777 21.52777777777778)"/><use xlink:href="#G" transform="matrix(1,0,0,1,710,300) translate(156.0546875 21.52777777777778)"/><use xlink:href="#D" transform="matrix(1,0,0,1,710,300) translate(4.861111111111111 53.79340277777778)"/><use xlink:href="#H" transform="matrix(1,0,0,1,710,300) translate(22.22222222222222 53.79340277777778)"/><use xlink:href="#I" transform="matrix(1,0,0,1,710,300) translate(93.81510416666666 53.79340277777778)"/><use xlink:href="#J" transform="matrix(1,0,0,1,710,300) translate(22.22222222222222 86.05902777777777)"/><use xlink:href="#K" transform="matrix(1,0,0,1,710,300) translate(121.94010416666669 86.05902777777777)"/></g><path d="M175 501a6 6 0 0 1 6-6h251a6 6 0 0 1 6 6v48a6 6 0 0 1-6 6H181a6 6 0 0 1-6-6z" fill="none"/><g><use xlink:href="#L" transform="matrix(1,0,0,1,175,495) translate(1.828125 39.700520833333336)"/></g><path d="M-280 288a6 6 0 0 1 6-6h148a6 6 0 0 1 6 6v108a6 6 0 0 1-6 6h-148a6 6 0 0 1-6-6z" stroke="#000" stroke-width="2" fill="#fff"/><g><use xlink:href="#M" transform="matrix(1,0,0,1,-268,294) translate(18.585937500000007 39.52777777777778)"/><use xlink:href="#N" transform="matrix(1,0,0,1,-268,294) translate(38.95811631944444 71.79340277777777)"/></g><path d="M-29 232c0 6.63-26.86 12-60 12s-60-5.37-60-12v-96c0-6.63 26.86-12 60-12s60 5.37 60 12z" stroke="#000" stroke-width="2" fill="#fff"/><path d="M-29 136c0 6.63-26.86 12-60 12s-60-5.37-60-12" stroke="#000" stroke-width="2" fill="none"/><g><use xlink:href="#O" transform="matrix(1,0,0,1,-144,153) translate(8.640407986111107 51.09027777777778)"/></g><path d="M-200 280.5v-5.03m0-5.03V260.4m0-5.04V245.3m0-5.02v-10.06m0-5.03v-10.06m0-5.03v-10.04m0-5.03V190a6 6 0 0 1 6-6h4.83m4.84 0h9.66m4.84 0h9.66m4.84 0h4.83" stroke="#3a414a" fill="none"/><path d="M-199.53 281h-.94v-.5h.94zM-150 184.47h-.5v-.94h.5z" stroke="#3a414a" stroke-width=".05" fill="#3a414a"/><path d="M-27.5 184h5.8m5.8 0h11.62m5.8 0h5.8a6 6 0 0 1 6 6v4.84m0 4.84v9.68m0 4.84v9.7m0 4.83v9.68m0 4.85v9.68m0 4.84v4.85" stroke="#3a414a" fill="none"/><path d="M-27.5 184.47h-.5v-.94h.5z" stroke="#3a414a" stroke-width=".05" fill="#3a414a"/><path d="M13.33 277.38L8.7 263.12h9.27z" stroke="#3a414a" fill="#3a414a"/><path d="M-24 140a6 6 0 0 1 6-6h168a6 6 0 0 1 6 6v28a6 6 0 0 1-6 6H-18a6 6 0 0 1-6-6z" fill="none"/><g><use xlink:href="#P" transform="matrix(1,0,0,1,-24,134) translate(0 17.22222222222222)"/><use xlink:href="#Q" transform="matrix(1,0,0,1,-24,134) translate(0 43.034722222222214)"/></g><defs><path d="M180 0v-1490h901v168H370v510h643v168H370V0H180" id="R"/><path d="M180 0v-1490h510c348 0 508 194 508 460 0 198-88 351-276 417L1256 0h-220L726-579c-117 2-238 0-356 1V0H180zm190-747h312c235 0 327-108 327-283 0-177-92-293-329-293H370v576" id="S"/><path d="M158 0v-1118h180V0H158zm91-1301c-68 0-125-53-125-119s57-119 125-119c69 0 126 53 126 119s-57 119-126 119" id="T"/><path d="M180 0v-1490h510c348 0 508 209 508 474 0 266-160 477-507 477H370V0H180zm190-706h312c236 0 327-133 327-310 0-176-91-307-329-307H370v617" id="U"/><g id="a"><use transform="matrix(0.010850694444444444,0,0,0.010850694444444444,0,0)" xlink:href="#R"/><use transform="matrix(0.010850694444444444,0,0,0.010850694444444444,13.118489583333332,0)" xlink:href="#S"/><use transform="matrix(0.010850694444444444,0,0,0.010850694444444444,27.419704861111104,0)" xlink:href="#T"/><use transform="matrix(0.010850694444444444,0,0,0.010850694444444444,32.80164930555555,0)" xlink:href="#U"/></g><path d="M338-1490V0H158v-1490h180" id="V"/><path d="M598-1118v154H368v674c0 100 37 144 132 144 23 0 62-6 92-12L629-6c-37 13-88 20-134 20-193 0-307-107-307-290v-688H20v-154h168v-266h180v266h230" id="W"/><path d="M628 24c-324 0-524-230-524-574 0-343 198-582 503-582 237 0 487 146 487 559v75H286c9 234 145 362 343 362 132 0 231-58 273-172l174 48C1024-91 857 24 628 24zM287-650h624c-17-190-120-322-304-322-192 0-309 151-320 322" id="X"/><path d="M158 0v-1118h174v172h12c41-113 157-188 290-188 26 0 70 2 91 3v181c-11-2-60-10-108-10-161 0-279 109-279 260V0H158" id="Y"/><g id="b"><use transform="matrix(0.010850694444444444,0,0,0.010850694444444444,0,0)" xlink:href="#R"/><use transform="matrix(0.010850694444444444,0,0,0.010850694444444444,13.118489583333332,0)" xlink:href="#T"/><use transform="matrix(0.010850694444444444,0,0,0.010850694444444444,18.50043402777778,0)" xlink:href="#V"/><use transform="matrix(0.010850694444444444,0,0,0.010850694444444444,24.207899305555554,0)" xlink:href="#W"/><use transform="matrix(0.010850694444444444,0,0,0.010850694444444444,31.26085069444445,0)" xlink:href="#X"/><use transform="matrix(0.010850694444444444,0,0,0.010850694444444444,44.216579861111114,0)" xlink:href="#Y"/></g><path d="M180 0v-1490h908v168H370v486h669v168H370v500h727V0H180" id="Z"/><path d="M180 0v-1490h224l606 953c40 63 108 177 176 312-27-437-7-821-13-1265h190V0h-226C860-448 622-778 356-1262c27 476 11 792 15 1262H180" id="aa"/><path d="M783 20c-382 0-661-292-661-764 0-473 279-766 661-766 302 0 548 182 601 489h-190c-42-204-217-313-411-313-268 0-476 208-476 590 0 381 209 588 476 588 195 0 369-110 411-313h190c-52 303-296 489-601 489" id="ab"/><path d="M784 20c-382 0-662-292-662-764 0-473 280-766 662-766s660 293 660 766c0 472-278 764-660 764zm0-176c266 0 475-207 475-588 0-383-209-590-475-590-268 0-477 208-477 590 0 380 209 588 477 588" id="ac"/><path d="M645 0H180v-1490h484c435 0 692 280 692 742 0 466-257 748-711 748zM370-168h263c363 0 539-218 539-580 0-358-176-574-521-574H370v1154" id="ad"/><path d="M295 13c-75 0-135-60-135-135s60-135 135-135 135 60 135 135S370 13 295 13" id="ae"/><path d="M538 24C308 24 148-78 108-271l171-41c32 123 123 178 257 178 156 0 256-77 256-169 0-77-54-128-164-154l-186-44c-203-48-300-148-300-305 0-192 176-326 414-326 230 0 351 112 402 269l-163 42c-31-80-94-158-238-158-133 0-233 69-233 162 0 83 57 129 188 160l169 40c203 48 298 149 298 302 0 196-179 339-441 339" id="af"/><path d="M481 0L54-1118h197c107 314 236 620 325 951 87-331 217-637 324-951h197L670 0H481" id="ag"/><g id="c"><use transform="matrix(0.010850694444444444,0,0,0.010850694444444444,0,0)" xlink:href="#Z"/><use transform="matrix(0.010850694444444444,0,0,0.010850694444444444,13.35720486111111,0)" xlink:href="#aa"/><use transform="matrix(0.010850694444444444,0,0,0.010850694444444444,30.09982638888889,0)" xlink:href="#ab"/><use transform="matrix(0.010850694444444444,0,0,0.010850694444444444,46.33246527777778,0)" xlink:href="#ac"/><use transform="matrix(0.010850694444444444,0,0,0.010850694444444444,63.32465277777778,0)" xlink:href="#ad"/><use transform="matrix(0.010850694444444444,0,0,0.010850694444444444,79.36197916666667,0)" xlink:href="#Z"/><use transform="matrix(0.010850694444444444,0,0,0.010850694444444444,92.7191840277778,0)" xlink:href="#ae"/><use transform="matrix(0.010850694444444444,0,0,0.010850694444444444,99.12109375000001,0)" xlink:href="#W"/><use transform="matrix(0.010850694444444444,0,0,0.010850694444444444,106.1740451388889,0)" xlink:href="#af"/><use transform="matrix(0.010850694444444444,0,0,0.010850694444444444,117.90364583333334,0)" xlink:href="#ag"/></g><path d="M49 0l509-1490h400L1480 0h-339l-115-346H497L386 0H49zm524-585h374c-75-213-124-402-192-666-66 268-110 453-182 666" id="ah"/><path d="M628 22C291 22 81-210 81-554c0-346 210-578 547-578 265 0 455 142 497 372l-279 52c-25-116-99-188-215-188-160 0-244 139-244 341 0 200 84 341 244 341 116 0 193-74 217-195l279 51C1085-123 896 22 628 22" id="ai"/><path d="M633 22C291 22 81-200 81-553c0-345 210-579 537-579 292 0 525 185 525 567v84H378c7 183 109 277 260 277 105 0 184-46 216-132l272 51C1071-99 893 22 633 22zM380-669h474c-15-146-94-237-233-237-143 0-229 99-241 237" id="aj"/><path d="M572 22C302 22 117-98 78-306l279-48c29 105 101 156 224 156 114 0 185-48 185-115 0-118-228-130-337-155-215-49-322-150-322-317 0-215 187-347 470-347 265 0 424 116 466 298l-266 47c-24-76-87-130-196-130-98 0-174 46-174 113 0 56 38 95 144 117l201 40c216 44 320 143 320 302 0 220-207 367-500 367" id="ak"/><path d="M128 0v-1118h300V0H128zm150-1264c-91 0-165-68-165-154 0-85 74-154 165-154 90 0 165 69 165 154 0 86-75 154-165 154" id="al"/><path d="M754 19C571 19 479-89 437-179h-14V0H128v-1490h300v560h9c41-89 129-202 319-202 248 0 453 193 453 575 0 372-197 576-455 576zm-92-241c156 0 240-139 240-336 0-196-83-334-240-334-154 0-241 131-241 334 0 202 88 336 241 336" id="am"/><path d="M428-1490V0H128v-1490h300" id="an"/><path d="M683-1118v229H474v562c0 71 29 104 102 104 23 0 73-7 95-13l43 225C647 9 580 16 520 16 296 16 174-96 174-301v-588H20v-229h154v-266h300v266h209" id="ao"/><path d="M120 396l69-226c123 42 245 23 254-107l8-60L31-1118h319c87 288 199 559 259 872 72-308 185-583 277-872h315L726 132c-68 181-186 294-410 294-79 0-153-13-196-30" id="ap"/><g id="d"><use transform="matrix(0.007595486111111112,0,0,0.007595486111111112,0,0)" xlink:href="#ah"/><use transform="matrix(0.007595486111111112,0,0,0.007595486111111112,11.256510416666668,0)" xlink:href="#ai"/><use transform="matrix(0.007595486111111112,0,0,0.007595486111111112,20.409071180555557,0)" xlink:href="#ai"/><use transform="matrix(0.007595486111111112,0,0,0.007595486111111112,29.561631944444446,0)" xlink:href="#aj"/><use transform="matrix(0.007595486111111112,0,0,0.007595486111111112,38.828125,0)" xlink:href="#ak"/><use transform="matrix(0.007595486111111112,0,0,0.007595486111111112,47.54014756944444,0)" xlink:href="#ak"/><use transform="matrix(0.007595486111111112,0,0,0.007595486111111112,56.252170138888886,0)" xlink:href="#al"/><use transform="matrix(0.007595486111111112,0,0,0.007595486111111112,60.46766493055555,0)" xlink:href="#am"/><use transform="matrix(0.007595486111111112,0,0,0.007595486111111112,70.2734375,0)" xlink:href="#al"/><use transform="matrix(0.007595486111111112,0,0,0.007595486111111112,74.48893229166667,0)" xlink:href="#an"/><use transform="matrix(0.007595486111111112,0,0,0.007595486111111112,78.70442708333334,0)" xlink:href="#al"/><use transform="matrix(0.007595486111111112,0,0,0.007595486111111112,82.91992187500001,0)" xlink:href="#ao"/><use transform="matrix(0.007595486111111112,0,0,0.007595486111111112,88.95833333333334,0)" xlink:href="#ap"/></g><path d="M628 22C291 22 81-210 81-554c0-346 210-578 547-578 336 0 547 232 547 578 0 344-211 576-547 576zm0-236c160 0 242-146 242-341 0-197-82-341-242-341S387-753 387-555c0 195 81 341 241 341" id="aq"/><path d="M625 442c-280 0-454-114-503-274l258-72c28 63 97 128 243 128 153 0 246-69 246-216v-206h-23C805-108 717-16 536-16 284-16 81-191 81-561c0-378 208-571 456-571 188 0 280 113 321 202h13v-188h295V-9c0 303-226 451-541 451zm5-686c153 0 240-119 240-319 0-198-86-329-240-329-158 0-241 137-241 329 0 195 85 319 241 319" id="ar"/><path d="M135 0v-1490h980v253H440v416h609v249H440V0H135" id="as"/><path d="M786 20C389 20 94-260 94-744c0-487 299-766 692-766 339 0 597 194 641 529h-309c-28-162-156-258-326-258-233 0-388 179-388 495 0 323 157 493 387 493 170 0 298-97 328-259h309c-34 277-266 530-642 530" id="at"/><g id="e"><use transform="matrix(0.007595486111111112,0,0,0.007595486111111112,0,0)" xlink:href="#an"/><use transform="matrix(0.007595486111111112,0,0,0.007595486111111112,4.215494791666667,0)" xlink:href="#aq"/><use transform="matrix(0.007595486111111112,0,0,0.007595486111111112,13.755425347222225,0)" xlink:href="#ar"/><use transform="matrix(0.007595486111111112,0,0,0.007595486111111112,23.583984375000004,0)" xlink:href="#as"/><use transform="matrix(0.007595486111111112,0,0,0.007595486111111112,32.71375868055556,0)" xlink:href="#at"/></g><path d="M75-1237v-253h1217v253H837V0H531v-1237H75" id="au"/><path d="M128 0v-1118h290v195h12c54-169 184-238 367-200v268c-27-8-86-15-130-15-138 0-239 95-239 234V0H128" id="av"/><path d="M440 22C227 22 68-92 68-313c0-250 202-322 422-343 195-21 271-24 271-105 0-95-63-149-175-149-116 0-187 57-211 129l-275-46c57-194 237-305 487-305 240 0 474 108 474 379V0H777v-155h-10C713-51 605 22 440 22zm85-211c140 0 238-93 238-211v-121c-37 26-156 42-222 51-111 16-185 59-185 149 0 87 70 132 169 132" id="aw"/><path d="M128 0v-1118h278l12 217c60-163 185-234 319-234 143 0 236 81 288 251 63-172 205-251 359-251 205 0 357 138 357 381V0h-301v-697c0-126-76-187-177-187-114 0-184 79-184 196V0H789v-705c0-109-72-179-174-179-106 0-187 74-187 208V0H128" id="ax"/><path d="M428-647V0H128v-1118h283l4 231c63-156 176-245 348-245 232 0 384 159 384 421V0H847v-659c0-139-76-222-202-222-128 0-217 86-217 234" id="ay"/><g id="f"><use transform="matrix(0.007595486111111112,0,0,0.007595486111111112,0,0)" xlink:href="#au"/><use transform="matrix(0.007595486111111112,0,0,0.007595486111111112,9.501953125,0)" xlink:href="#av"/><use transform="matrix(0.007595486111111112,0,0,0.007595486111111112,15.45681423611111,0)" xlink:href="#aj"/><use transform="matrix(0.007595486111111112,0,0,0.007595486111111112,24.87521701388889,0)" xlink:href="#aw"/><use transform="matrix(0.007595486111111112,0,0,0.007595486111111112,33.90625,0)" xlink:href="#ao"/><use transform="matrix(0.007595486111111112,0,0,0.007595486111111112,39.602864583333336,0)" xlink:href="#ax"/><use transform="matrix(0.007595486111111112,0,0,0.007595486111111112,53.798828125,0)" xlink:href="#aj"/><use transform="matrix(0.007595486111111112,0,0,0.007595486111111112,63.065321180555564,0)" xlink:href="#ay"/><use transform="matrix(0.007595486111111112,0,0,0.007595486111111112,72.74956597222223,0)" xlink:href="#ao"/></g><path d="M681 22C323 22 94-145 85-462h297c10 151 131 226 296 226 163 0 271-77 271-190 0-102-95-149-257-189l-164-41c-252-61-403-188-403-405 0-269 236-449 560-449 330 0 546 183 551 445H941c-11-119-106-188-259-188-156 0-244 72-244 172-3 156 226 185 373 221 250 61 445 186 445 436 0 271-213 446-575 446" id="az"/><path d="M443 0L31-1118h319c90 293 199 572 268 885 66-313 175-593 264-885h315L784 0H443" id="aA"/><g id="g"><use transform="matrix(0.007595486111111112,0,0,0.007595486111111112,0,0)" xlink:href="#az"/><use transform="matrix(0.007595486111111112,0,0,0.007595486111111112,10.185546875000002,0)" xlink:href="#aj"/><use transform="matrix(0.007595486111111112,0,0,0.007595486111111112,19.452039930555557,0)" xlink:href="#ay"/><use transform="matrix(0.007595486111111112,0,0,0.007595486111111112,29.136284722222225,0)" xlink:href="#ak"/><use transform="matrix(0.007595486111111112,0,0,0.007595486111111112,37.84830729166667,0)" xlink:href="#al"/><use transform="matrix(0.007595486111111112,0,0,0.007595486111111112,42.063802083333336,0)" xlink:href="#ao"/><use transform="matrix(0.007595486111111112,0,0,0.007595486111111112,47.76041666666667,0)" xlink:href="#al"/><use transform="matrix(0.007595486111111112,0,0,0.007595486111111112,51.975911458333336,0)" xlink:href="#aA"/><use transform="matrix(0.007595486111111112,0,0,0.007595486111111112,61.022135416666664,0)" xlink:href="#aj"/></g><path d="M218-607c0-325 108-727 258-974h175c-155 315-250 682-250 974 0 265 78 531 250 886H476C306-10 218-315 218-607" id="aB"/><path d="M577 24c-279 0-473-224-473-580 0-354 195-576 474-576 218 0 287 134 324 193h14v-551h180V0H922v-173h-20C865-111 790 24 577 24zm27-161c203 0 314-172 314-421 0-247-108-413-314-413-212 0-317 181-317 413 0 235 108 421 317 421" id="aC"/><g id="h"><use transform="matrix(0.007595486111111112,0,0,0.007595486111111112,0,0)" xlink:href="#aB"/><use transform="matrix(0.007595486111111112,0,0,0.007595486111111112,5.673828125000001,0)" xlink:href="#ad"/><use transform="matrix(0.007595486111111112,0,0,0.007595486111111112,16.899956597222225,0)" xlink:href="#X"/><use transform="matrix(0.007595486111111112,0,0,0.007595486111111112,25.968967013888893,0)" xlink:href="#Y"/><use transform="matrix(0.007595486111111112,0,0,0.007595486111111112,32.068142361111114,0)" xlink:href="#Y"/><use transform="matrix(0.007595486111111112,0,0,0.007595486111111112,38.167317708333336,0)" xlink:href="#T"/><use transform="matrix(0.007595486111111112,0,0,0.007595486111111112,41.93467881944445,0)" xlink:href="#ag"/><use transform="matrix(0.007595486111111112,0,0,0.007595486111111112,50.3732638888889,0)" xlink:href="#X"/><use transform="matrix(0.007595486111111112,0,0,0.007595486111111112,59.44227430555557,0)" xlink:href="#aC"/></g><path d="M678-1118v154H420V0H240v-964H20v-154h220v-149c0-194 155-293 318-293 85 0 141 18 168 30l-50 154c-19-6-47-17-97-17-111 0-159 58-159 166v109h258" id="aD"/><path d="M613 24c-304 0-509-231-509-576 0-350 205-580 509-580 305 0 511 230 511 580 0 345-206 576-511 576zm0-161c226 0 329-195 329-415 0-222-103-419-329-419-223 0-326 196-326 419 0 220 103 415 326 415" id="aE"/><path d="M158 0v-1118h175l1 205c55-151 181-225 313-225 147 0 245 90 285 228 53-141 190-228 352-228 194 0 352 125 352 384V0h-181v-749c0-161-105-225-225-225-151 0-243 103-243 244V0H807v-767c0-124-93-207-219-207-131 0-250 92-250 270V0H158" id="aF"/><g id="i"><use transform="matrix(0.007595486111111112,0,0,0.007595486111111112,0,0)" xlink:href="#aD"/><use transform="matrix(0.007595486111111112,0,0,0.007595486111111112,5.757378472222223,0)" xlink:href="#Y"/><use transform="matrix(0.007595486111111112,0,0,0.007595486111111112,11.355251736111112,0)" xlink:href="#aE"/><use transform="matrix(0.007595486111111112,0,0,0.007595486111111112,20.682508680555557,0)" xlink:href="#aF"/></g><path d="M338-670V0H158v-1118h173l1 207c72-158 192-221 342-221 226 0 378 139 378 422V0H872v-695c0-172-96-275-252-275-161 0-282 109-282 300" id="aG"/><path d="M471 26C259 26 90-98 90-318c0-256 228-303 435-329 202-27 287-16 287-108 0-139-79-219-234-219-161 0-248 86-283 164l-173-57c86-203 278-265 451-265 150 0 419 46 419 395V0H815v-152h-12C765-73 660 26 471 26zm31-159c199 0 310-134 310-271v-155c-30 35-226 55-295 64-131 17-246 59-246 186 0 116 97 176 231 176" id="aH"/><g id="j"><use transform="matrix(0.007595486111111112,0,0,0.007595486111111112,0,0)" xlink:href="#aC"/><use transform="matrix(0.007595486111111112,0,0,0.007595486111111112,9.524739583333334,0)" xlink:href="#T"/><use transform="matrix(0.007595486111111112,0,0,0.007595486111111112,13.292100694444446,0)" xlink:href="#aD"/><use transform="matrix(0.007595486111111112,0,0,0.007595486111111112,18.44184027777778,0)" xlink:href="#aD"/><use transform="matrix(0.007595486111111112,0,0,0.007595486111111112,23.743489583333336,0)" xlink:href="#X"/><use transform="matrix(0.007595486111111112,0,0,0.007595486111111112,32.8125,0)" xlink:href="#Y"/><use transform="matrix(0.007595486111111112,0,0,0.007595486111111112,38.410373263888886,0)" xlink:href="#X"/><use transform="matrix(0.007595486111111112,0,0,0.007595486111111112,47.47938368055556,0)" xlink:href="#aG"/><use transform="matrix(0.007595486111111112,0,0,0.007595486111111112,56.669921875,0)" xlink:href="#W"/><use transform="matrix(0.007595486111111112,0,0,0.007595486111111112,61.75889756944444,0)" xlink:href="#T"/><use transform="matrix(0.007595486111111112,0,0,0.007595486111111112,65.52625868055556,0)" xlink:href="#aH"/><use transform="matrix(0.007595486111111112,0,0,0.007595486111111112,74.26106770833334,0)" xlink:href="#V"/></g><path d="M158 418v-1536h174v179h20c37-59 106-193 324-193 279 0 474 222 474 576 0 356-194 580-473 580-213 0-288-135-325-197h-14v591H158zm492-555c209 0 317-186 317-421 0-232-105-413-317-413-206 0-314 166-314 413 0 249 111 421 314 421" id="aI"/><path d="M158 0v-1490h180v865h22l478-493h223L593-638 1096 0H865L456-523 338-412V0H158" id="aJ"/><path d="M798-719v166H144v-166h654" id="aK"/><path d="M613 24c-304 0-509-231-509-576 0-350 205-580 509-580 216 0 392 114 453 309l-173 49c-33-115-133-197-280-197-223 0-326 196-326 419 0 220 103 415 326 415 150 0 252-85 285-206l172 49C1010-95 832 24 613 24" id="aL"/><path d="M611 442c-248 0-391-105-460-228l146-94c47 65 117 165 314 165 178 0 307-82 307-266v-224h-17C863-141 792-18 576-18c-268 0-472-195-472-546 0-346 197-568 476-568 216 0 288 133 326 193h17v-179h175V29c0 289-215 413-487 413zm-5-620c203 0 314-146 314-390 0-237-108-403-314-403-213 0-319 180-319 403 0 230 109 390 319 390" id="aM"/><g id="k"><use transform="matrix(0.007595486111111112,0,0,0.007595486111111112,0,0)" xlink:href="#aI"/><use transform="matrix(0.007595486111111112,0,0,0.007595486111111112,9.524739583333334,0)" xlink:href="#X"/><use transform="matrix(0.007595486111111112,0,0,0.007595486111111112,18.74565972222222,0)" xlink:href="#aH"/><use transform="matrix(0.007595486111111112,0,0,0.007595486111111112,27.48046875,0)" xlink:href="#aJ"/><use transform="matrix(0.007595486111111112,0,0,0.007595486111111112,35.31141493055556,0)" xlink:href="#aK"/><use transform="matrix(0.007595486111111112,0,0,0.007595486111111112,42.46636284722222,0)" xlink:href="#aL"/><use transform="matrix(0.007595486111111112,0,0,0.007595486111111112,51.50499131944444,0)" xlink:href="#aH"/><use transform="matrix(0.007595486111111112,0,0,0.007595486111111112,60.23980034722222,0)" xlink:href="#V"/><use transform="matrix(0.007595486111111112,0,0,0.007595486111111112,64.00716145833333,0)" xlink:href="#V"/><use transform="matrix(0.007595486111111112,0,0,0.007595486111111112,67.77452256944444,0)" xlink:href="#T"/><use transform="matrix(0.007595486111111112,0,0,0.007595486111111112,71.54188368055556,0)" xlink:href="#aG"/><use transform="matrix(0.007595486111111112,0,0,0.007595486111111112,80.732421875,0)" xlink:href="#aM"/></g><path d="M409 0L70-1118h191c89 329 165 560 243 925 75-353 154-601 240-925h192c85 325 161 564 235 922 77-354 157-598 244-922h191L1267 0h-179c-86-307-176-590-250-913C763-588 675-308 588 0H409" id="aN"/><path d="M96 279C273-86 346-350 346-607c0-292-95-659-250-974h175c150 246 258 650 258 974 0 297-91 602-258 886H96" id="aO"/><g id="l"><use transform="matrix(0.007595486111111112,0,0,0.007595486111111112,0,0)" xlink:href="#af"/><use transform="matrix(0.007595486111111112,0,0,0.007595486111111112,8.210720486111112,0)" xlink:href="#aE"/><use transform="matrix(0.007595486111111112,0,0,0.007595486111111112,17.537977430555557,0)" xlink:href="#aD"/><use transform="matrix(0.007595486111111112,0,0,0.007595486111111112,22.763671875,0)" xlink:href="#W"/><use transform="matrix(0.007595486111111112,0,0,0.007595486111111112,28.08051215277778,0)" xlink:href="#aN"/><use transform="matrix(0.007595486111111112,0,0,0.007595486111111112,40.810546875,0)" xlink:href="#aH"/><use transform="matrix(0.007595486111111112,0,0,0.007595486111111112,49.54535590277778,0)" xlink:href="#Y"/><use transform="matrix(0.007595486111111112,0,0,0.007595486111111112,55.143229166666664,0)" xlink:href="#X"/><use transform="matrix(0.007595486111111112,0,0,0.007595486111111112,64.03754340277777,0)" xlink:href="#aO"/></g><g id="m"><use transform="matrix(0.010850694444444444,0,0,0.010850694444444444,0,0)" xlink:href="#U"/><use transform="matrix(0.010850694444444444,0,0,0.010850694444444444,14.073350694444445,0)" xlink:href="#X"/><use transform="matrix(0.010850694444444444,0,0,0.010850694444444444,27.24609375,0)" xlink:href="#aH"/><use transform="matrix(0.010850694444444444,0,0,0.010850694444444444,39.724392361111114,0)" xlink:href="#aJ"/></g><path d="M657 26c-323 0-524-166-541-416h195c15 169 171 246 346 246 202 0 356-106 356-265 5-203-294-238-475-293-239-73-380-191-380-389 0-252 224-419 512-419 294 0 499 171 508 396H992c-17-145-151-228-328-228-193 0-321 102-321 242 0 156 175 211 284 241l149 41c160 44 422 134 422 412 0 244-197 432-541 432" id="aP"/><g id="n"><use transform="matrix(0.010850694444444444,0,0,0.010850694444444444,0,0)" xlink:href="#aP"/><use transform="matrix(0.010850694444444444,0,0,0.010850694444444444,14.2578125,0)" xlink:href="#X"/><use transform="matrix(0.010850694444444444,0,0,0.010850694444444444,27.213541666666664,0)" xlink:href="#W"/></g><path d="M537 14c-226 0-379-139-379-422v-710h180v695c0 172 97 275 253 275 160 0 281-109 281-300v-670h181V0H879v-209C806-46 684 14 537 14" id="aQ"/><g id="o"><use transform="matrix(0.010850694444444444,0,0,0.010850694444444444,0,0)" xlink:href="#R"/><use transform="matrix(0.010850694444444444,0,0,0.010850694444444444,12.239583333333332,0)" xlink:href="#X"/><use transform="matrix(0.010850694444444444,0,0,0.010850694444444444,25.41232638888889,0)" xlink:href="#aH"/><use transform="matrix(0.010850694444444444,0,0,0.010850694444444444,37.890625,0)" xlink:href="#W"/><use transform="matrix(0.010850694444444444,0,0,0.010850694444444444,45.16059027777778,0)" xlink:href="#aQ"/><use transform="matrix(0.010850694444444444,0,0,0.010850694444444444,58.30078125,0)" xlink:href="#Y"/><use transform="matrix(0.010850694444444444,0,0,0.010850694444444444,66.29774305555556,0)" xlink:href="#X"/></g><path d="M180 0v-1490h270l367 940c28 72 75 218 110 339 35-117 81-264 110-339l362-940h271V0h-187c2-448-5-837 7-1287-157 497-311 829-483 1287H842C666-458 514-784 354-1284c12 438 5 843 7 1284H180" id="aR"/><path d="M65 0l393-574-370-544h210c88 136 192 297 267 435 67-142 176-302 264-435h206L661-564 1053 0H844c-94-144-206-310-287-458C484-308 366-142 273 0H65" id="aS"/><g id="p"><use transform="matrix(0.010850694444444444,0,0,0.010850694444444444,0,0)" xlink:href="#aR"/><use transform="matrix(0.010850694444444444,0,0,0.010850694444444444,20.07378472222222,0)" xlink:href="#aH"/><use transform="matrix(0.010850694444444444,0,0,0.010850694444444444,32.55208333333333,0)" xlink:href="#W"/><use transform="matrix(0.010850694444444444,0,0,0.010850694444444444,39.82204861111111,0)" xlink:href="#Y"/><use transform="matrix(0.010850694444444444,0,0,0.010850694444444444,48.535156249999986,0)" xlink:href="#T"/><use transform="matrix(0.010850694444444444,0,0,0.010850694444444444,53.917100694444436,0)" xlink:href="#aS"/></g><path d="M789 20c-398 0-667-293-667-764 0-473 273-766 655-766 315 0 558 198 612 487h-196c-61-191-204-311-415-311-262 0-471 207-471 590 0 380 208 588 482 588 249 0 420-165 425-427H828v-166h572v163c0 370-256 606-611 606" id="aT"/><g id="q"><use transform="matrix(0.010850694444444444,0,0,0.010850694444444444,0,0)" xlink:href="#aT"/><use transform="matrix(0.010850694444444444,0,0,0.010850694444444444,16.57986111111111,0)" xlink:href="#X"/><use transform="matrix(0.010850694444444444,0,0,0.010850694444444444,29.535590277777775,0)" xlink:href="#aG"/><use transform="matrix(0.010850694444444444,0,0,0.010850694444444444,42.66493055555556,0)" xlink:href="#X"/><use transform="matrix(0.010850694444444444,0,0,0.010850694444444444,55.62065972222222,0)" xlink:href="#Y"/><use transform="matrix(0.010850694444444444,0,0,0.010850694444444444,63.986545138888886,0)" xlink:href="#aH"/><use transform="matrix(0.010850694444444444,0,0,0.010850694444444444,76.46484375,0)" xlink:href="#W"/><use transform="matrix(0.010850694444444444,0,0,0.010850694444444444,83.73480902777777,0)" xlink:href="#T"/><use transform="matrix(0.010850694444444444,0,0,0.010850694444444444,89.11675347222221,0)" xlink:href="#aE"/><use transform="matrix(0.010850694444444444,0,0,0.010850694444444444,102.44140624999997,0)" xlink:href="#aG"/></g><g id="r"><use transform="matrix(0.010850694444444444,0,0,0.010850694444444444,0,0)" xlink:href="#S"/><use transform="matrix(0.010850694444444444,0,0,0.010850694444444444,14.301215277777777,0)" xlink:href="#T"/><use transform="matrix(0.010850694444444444,0,0,0.010850694444444444,19.68315972222222,0)" xlink:href="#aC"/><use transform="matrix(0.010850694444444444,0,0,0.010850694444444444,33.28993055555556,0)" xlink:href="#aM"/><use transform="matrix(0.010850694444444444,0,0,0.010850694444444444,46.91840277777778,0)" xlink:href="#X"/></g><g id="s"><use transform="matrix(0.010850694444444444,0,0,0.010850694444444444,0,0)" xlink:href="#S"/><use transform="matrix(0.010850694444444444,0,0,0.010850694444444444,13.975694444444445,0)" xlink:href="#X"/><use transform="matrix(0.010850694444444444,0,0,0.010850694444444444,26.931423611111104,0)" xlink:href="#aM"/><use transform="matrix(0.010850694444444444,0,0,0.010850694444444444,40.55989583333333,0)" xlink:href="#Y"/><use transform="matrix(0.010850694444444444,0,0,0.010850694444444444,48.55685763888888,0)" xlink:href="#X"/><use transform="matrix(0.010850694444444444,0,0,0.010850694444444444,61.51258680555554,0)" xlink:href="#af"/><use transform="matrix(0.010850694444444444,0,0,0.010850694444444444,73.24218749999999,0)" xlink:href="#af"/><use transform="matrix(0.010850694444444444,0,0,0.010850694444444444,84.97178819444443,0)" xlink:href="#T"/><use transform="matrix(0.010850694444444444,0,0,0.010850694444444444,90.35373263888887,0)" xlink:href="#aE"/><use transform="matrix(0.010850694444444444,0,0,0.010850694444444444,103.67838541666664,0)" xlink:href="#aG"/></g><g id="t"><use transform="matrix(0.010850694444444444,0,0,0.010850694444444444,0,0)" xlink:href="#S"/><use transform="matrix(0.010850694444444444,0,0,0.010850694444444444,14.192708333333332,0)" xlink:href="#aH"/><use transform="matrix(0.010850694444444444,0,0,0.010850694444444444,26.671006944444443,0)" xlink:href="#aG"/><use transform="matrix(0.010850694444444444,0,0,0.010850694444444444,39.80034722222222,0)" xlink:href="#aC"/><use transform="matrix(0.010850694444444444,0,0,0.010850694444444444,53.40711805555556,0)" xlink:href="#aE"/><use transform="matrix(0.010850694444444444,0,0,0.010850694444444444,66.73177083333333,0)" xlink:href="#aF"/></g><g id="u"><use transform="matrix(0.010850694444444444,0,0,0.010850694444444444,0,0)" xlink:href="#R"/><use transform="matrix(0.010850694444444444,0,0,0.010850694444444444,12.239583333333332,0)" xlink:href="#aE"/><use transform="matrix(0.010850694444444444,0,0,0.010850694444444444,25.564236111111104,0)" xlink:href="#Y"/><use transform="matrix(0.010850694444444444,0,0,0.010850694444444444,33.561197916666664,0)" xlink:href="#X"/><use transform="matrix(0.010850694444444444,0,0,0.010850694444444444,46.51692708333333,0)" xlink:href="#af"/><use transform="matrix(0.010850694444444444,0,0,0.010850694444444444,58.24652777777778,0)" xlink:href="#W"/></g><g id="v"><use transform="matrix(0.010850694444444444,0,0,0.010850694444444444,0,0)" xlink:href="#ab"/><use transform="matrix(0.010850694444444444,0,0,0.010850694444444444,16.23263888888889,0)" xlink:href="#V"/><use transform="matrix(0.010850694444444444,0,0,0.010850694444444444,21.614583333333336,0)" xlink:href="#aH"/><use transform="matrix(0.010850694444444444,0,0,0.010850694444444444,34.09288194444444,0)" xlink:href="#af"/><use transform="matrix(0.010850694444444444,0,0,0.010850694444444444,45.822482638888886,0)" xlink:href="#af"/><use transform="matrix(0.010850694444444444,0,0,0.010850694444444444,57.55208333333333,0)" xlink:href="#T"/><use transform="matrix(0.010850694444444444,0,0,0.010850694444444444,62.93402777777778,0)" xlink:href="#aD"/><use transform="matrix(0.010850694444444444,0,0,0.010850694444444444,70.5078125,0)" xlink:href="#aL"/><use transform="matrix(0.010850694444444444,0,0,0.010850694444444444,83.42013888888889,0)" xlink:href="#aH"/><use transform="matrix(0.010850694444444444,0,0,0.010850694444444444,95.8984375,0)" xlink:href="#W"/><use transform="matrix(0.010850694444444444,0,0,0.010850694444444444,103.16840277777777,0)" xlink:href="#T"/><use transform="matrix(0.010850694444444444,0,0,0.010850694444444444,108.55034722222221,0)" xlink:href="#aE"/><use transform="matrix(0.010850694444444444,0,0,0.010850694444444444,121.87499999999997,0)" xlink:href="#aG"/></g><path d="M576-274c-177 0-320-143-320-320s143-320 320-320 320 143 320 320-143 320-320 320" id="aU"/><use transform="matrix(0.010850694444444444,0,0,0.010850694444444444,0,0)" xlink:href="#aU" id="w"/><g id="x"><use transform="matrix(0.010850694444444444,0,0,0.010850694444444444,0,0)" xlink:href="#S"/><use transform="matrix(0.010850694444444444,0,0,0.010850694444444444,13.975694444444445,0)" xlink:href="#X"/><use transform="matrix(0.010850694444444444,0,0,0.010850694444444444,26.931423611111104,0)" xlink:href="#aM"/><use transform="matrix(0.010850694444444444,0,0,0.010850694444444444,40.55989583333333,0)" xlink:href="#Y"/><use transform="matrix(0.010850694444444444,0,0,0.010850694444444444,48.55685763888888,0)" xlink:href="#X"/><use transform="matrix(0.010850694444444444,0,0,0.010850694444444444,61.51258680555554,0)" xlink:href="#af"/><use transform="matrix(0.010850694444444444,0,0,0.010850694444444444,73.24218749999999,0)" xlink:href="#af"/><use transform="matrix(0.010850694444444444,0,0,0.010850694444444444,84.97178819444443,0)" xlink:href="#T"/><use transform="matrix(0.010850694444444444,0,0,0.010850694444444444,90.35373263888887,0)" xlink:href="#aE"/><use transform="matrix(0.010850694444444444,0,0,0.010850694444444444,103.67838541666664,0)" xlink:href="#aG"/></g><g id="y"><use transform="matrix(0.010850694444444444,0,0,0.010850694444444444,0,0)" xlink:href="#ab"/><use transform="matrix(0.010850694444444444,0,0,0.010850694444444444,16.23263888888889,0)" xlink:href="#aE"/><use transform="matrix(0.010850694444444444,0,0,0.010850694444444444,29.557291666666664,0)" xlink:href="#X"/><use transform="matrix(0.010850694444444444,0,0,0.010850694444444444,42.51302083333333,0)" xlink:href="#aD"/><use transform="matrix(0.010850694444444444,0,0,0.010850694444444444,49.86979166666666,0)" xlink:href="#aD"/><use transform="matrix(0.010850694444444444,0,0,0.010850694444444444,58.09461805555554,0)" xlink:href="#T"/><use transform="matrix(0.010850694444444444,0,0,0.010850694444444444,63.476562499999986,0)" xlink:href="#aL"/><use transform="matrix(0.010850694444444444,0,0,0.010850694444444444,76.17187499999999,0)" xlink:href="#T"/><use transform="matrix(0.010850694444444444,0,0,0.010850694444444444,81.55381944444443,0)" xlink:href="#X"/><use transform="matrix(0.010850694444444444,0,0,0.010850694444444444,94.50954861111111,0)" xlink:href="#aG"/><use transform="matrix(0.010850694444444444,0,0,0.010850694444444444,107.63888888888887,0)" xlink:href="#W"/><use transform="matrix(0.010850694444444444,0,0,0.010850694444444444,114.69184027777776,0)" xlink:href="#af"/></g><g id="z"><use transform="matrix(0.010850694444444444,0,0,0.010850694444444444,0,0)" xlink:href="#Z"/><use transform="matrix(0.010850694444444444,0,0,0.010850694444444444,13.35720486111111,0)" xlink:href="#aa"/><use transform="matrix(0.010850694444444444,0,0,0.010850694444444444,30.09982638888889,0)" xlink:href="#ab"/><use transform="matrix(0.010850694444444444,0,0,0.010850694444444444,46.33246527777778,0)" xlink:href="#ac"/><use transform="matrix(0.010850694444444444,0,0,0.010850694444444444,63.32465277777778,0)" xlink:href="#ad"/><use transform="matrix(0.010850694444444444,0,0,0.010850694444444444,79.36197916666667,0)" xlink:href="#Z"/></g><path d="M338-670V0H158v-1490h180v566c73-149 190-208 336-208 226 0 379 139 379 422V0H872v-695c0-172-96-275-252-275-161 0-282 109-282 300" id="aV"/><path d="M370-1490V0H180v-1490h190" id="aW"/><path d="M1096 418H916v-591h-14C865-111 790 24 577 24c-279 0-473-224-473-580 0-354 195-576 474-576 218 0 287 134 324 193h20v-179h174V418zM604-137c203 0 314-172 314-421 0-247-108-413-314-413-212 0-317 181-317 413 0 235 108 421 317 421" id="aX"/><g id="A"><use transform="matrix(0.008680555555555556,0,0,0.008680555555555556,0,0)" xlink:href="#ab"/><use transform="matrix(0.008680555555555556,0,0,0.008680555555555556,12.986111111111112,0)" xlink:href="#aV"/><use transform="matrix(0.008680555555555556,0,0,0.008680555555555556,23.498263888888893,0)" xlink:href="#aW"/><use transform="matrix(0.008680555555555556,0,0,0.008680555555555556,28.27256944444445,0)" xlink:href="#U"/><use transform="matrix(0.008680555555555556,0,0,0.008680555555555556,38.81944444444444,0)" xlink:href="#aK"/><use transform="matrix(0.008680555555555556,0,0,0.008680555555555556,46.996527777777786,0)" xlink:href="#af"/><use transform="matrix(0.008680555555555556,0,0,0.008680555555555556,56.38020833333334,0)" xlink:href="#X"/><use transform="matrix(0.008680555555555556,0,0,0.008680555555555556,66.74479166666667,0)" xlink:href="#aX"/></g><path d="M180 0v-1490h528c311 0 458 177 458 395 0 191-114 278-244 313v14c139 9 302 137 302 371 0 225-148 397-499 397H180zm190-168h350c232 0 321-102 321-231 0-149-120-277-311-277H370v508zm0-668h328c160 0 286-101 286-255 0-129-87-231-280-231H370v486" id="aY"/><g id="B"><use transform="matrix(0.008680555555555556,0,0,0.008680555555555556,0,0)" xlink:href="#aY"/><use transform="matrix(0.008680555555555556,0,0,0.008680555555555556,11.631944444444445,0)" xlink:href="#Z"/><use transform="matrix(0.008680555555555556,0,0,0.008680555555555556,22.317708333333336,0)" xlink:href="#ad"/><use transform="matrix(0.008680555555555556,0,0,0.008680555555555556,35.14756944444445,0)" xlink:href="#af"/></g><path d="M135 0v-1490h581c339 0 533 192 533 485 0 204-94 351-264 424L1302 0H964L680-532H440V0H135zm305-779h220c186 0 274-77 274-226 0-150-88-233-275-233H440v459" id="aZ"/><path d="M135 0v-1490h581c339 0 533 210 533 503 0 295-197 500-540 500H440V0H135zm305-733h220c186 0 274-104 274-254s-88-251-275-251H440v505" id="ba"/><path d="M975 0v231H0V0h975" id="bb"/><path d="M750-1118v229H516V0H217v-889H20v-229h197v-86c0-238 156-356 363-356 94 0 178 20 215 31l-54 226c-25-7-61-15-100-15-123-3-131 84-125 200h234" id="bc"/><path d="M342 19c-98 0-173-75-173-172s75-172 173-172 173 75 173 172S440 19 342 19" id="bd"/><path d="M128 418v-1536h295v188h14c41-89 129-202 319-202 248 0 453 193 453 575 0 372-197 576-455 576-183 0-275-108-317-198h-9v597H128zm534-640c156 0 240-139 240-336 0-196-83-334-240-334-154 0-241 131-241 334 0 202 88 336 241 336" id="be"/><g id="C"><use transform="matrix(0.013020833333333334,0,0,0.013020833333333334,0,0)" xlink:href="#as"/><use transform="matrix(0.013020833333333334,0,0,0.013020833333333334,15.651041666666668,0)" xlink:href="#aZ"/><use transform="matrix(0.013020833333333334,0,0,0.013020833333333334,33.1640625,0)" xlink:href="#al"/><use transform="matrix(0.013020833333333334,0,0,0.013020833333333334,40.390625,0)" xlink:href="#ba"/><use transform="matrix(0.013020833333333334,0,0,0.013020833333333334,57.669270833333336,0)" xlink:href="#bb"/><use transform="matrix(0.013020833333333334,0,0,0.013020833333333334,70.36458333333334,0)" xlink:href="#bc"/><use transform="matrix(0.013020833333333334,0,0,0.013020833333333334,81.19791666666669,0)" xlink:href="#al"/><use transform="matrix(0.013020833333333334,0,0,0.013020833333333334,88.42447916666669,0)" xlink:href="#an"/><use transform="matrix(0.013020833333333334,0,0,0.013020833333333334,96.04166666666669,0)" xlink:href="#ao"/><use transform="matrix(0.013020833333333334,0,0,0.013020833333333334,105.54687500000001,0)" xlink:href="#aj"/><use transform="matrix(0.013020833333333334,0,0,0.013020833333333334,121.4322916666667,0)" xlink:href="#av"/><use transform="matrix(0.013020833333333334,0,0,0.013020833333333334,130.625,0)" xlink:href="#bd"/><use transform="matrix(0.013020833333333334,0,0,0.013020833333333334,139.53125,0)" xlink:href="#be"/><use transform="matrix(0.013020833333333334,0,0,0.013020833333333334,155.859375,0)" xlink:href="#ap"/></g><use transform="matrix(0.010850694444444444,0,0,0.010850694444444444,0,0)" xlink:href="#aU" id="D"/><g id="E"><use transform="matrix(0.010850694444444444,0,0,0.010850694444444444,0,0)" xlink:href="#aR"/><use transform="matrix(0.010850694444444444,0,0,0.010850694444444444,20.07378472222222,0)" xlink:href="#ad"/><use transform="matrix(0.010850694444444444,0,0,0.010850694444444444,36.111111111111114,0)" xlink:href="#aW"/></g><g id="F"><use transform="matrix(0.010850694444444444,0,0,0.010850694444444444,0,0)" xlink:href="#R"/><use transform="matrix(0.010850694444444444,0,0,0.010850694444444444,12.239583333333332,0)" xlink:href="#X"/><use transform="matrix(0.010850694444444444,0,0,0.010850694444444444,25.41232638888889,0)" xlink:href="#aH"/><use transform="matrix(0.010850694444444444,0,0,0.010850694444444444,37.890625,0)" xlink:href="#W"/><use transform="matrix(0.010850694444444444,0,0,0.010850694444444444,45.16059027777778,0)" xlink:href="#aQ"/><use transform="matrix(0.010850694444444444,0,0,0.010850694444444444,58.30078125,0)" xlink:href="#Y"/><use transform="matrix(0.010850694444444444,0,0,0.010850694444444444,66.29774305555556,0)" xlink:href="#X"/></g><g id="G"><use transform="matrix(0.010850694444444444,0,0,0.010850694444444444,0,0)" xlink:href="#aW"/><use transform="matrix(0.010850694444444444,0,0,0.010850694444444444,5.967881944444445,0)" xlink:href="#aF"/><use transform="matrix(0.010850694444444444,0,0,0.010850694444444444,25.43402777777778,0)" xlink:href="#aI"/><use transform="matrix(0.010850694444444444,0,0,0.010850694444444444,39.040798611111114,0)" xlink:href="#aE"/><use transform="matrix(0.010850694444444444,0,0,0.010850694444444444,52.3654513888889,0)" xlink:href="#Y"/><use transform="matrix(0.010850694444444444,0,0,0.010850694444444444,61.07855902777778,0)" xlink:href="#W"/><use transform="matrix(0.010850694444444444,0,0,0.010850694444444444,68.45703125,0)" xlink:href="#aH"/><use transform="matrix(0.010850694444444444,0,0,0.010850694444444444,80.93532986111111,0)" xlink:href="#aG"/><use transform="matrix(0.010850694444444444,0,0,0.010850694444444444,94.06467013888889,0)" xlink:href="#aL"/><use transform="matrix(0.010850694444444444,0,0,0.010850694444444444,106.75998263888889,0)" xlink:href="#X"/></g><g id="H"><use transform="matrix(0.010850694444444444,0,0,0.010850694444444444,0,0)" xlink:href="#aR"/><use transform="matrix(0.010850694444444444,0,0,0.010850694444444444,20.07378472222222,0)" xlink:href="#aE"/><use transform="matrix(0.010850694444444444,0,0,0.010850694444444444,33.3984375,0)" xlink:href="#aC"/><use transform="matrix(0.010850694444444444,0,0,0.010850694444444444,47.00520833333333,0)" xlink:href="#X"/><use transform="matrix(0.010850694444444444,0,0,0.010850694444444444,59.960937499999986,0)" xlink:href="#V"/></g><g id="I"><use transform="matrix(0.010850694444444444,0,0,0.010850694444444444,0,0)" xlink:href="#U"/><use transform="matrix(0.010850694444444444,0,0,0.010850694444444444,14.073350694444445,0)" xlink:href="#X"/><use transform="matrix(0.010850694444444444,0,0,0.010850694444444444,27.029079861111104,0)" xlink:href="#Y"/><use transform="matrix(0.010850694444444444,0,0,0.010850694444444444,35.74218749999999,0)" xlink:href="#aD"/><use transform="matrix(0.010850694444444444,0,0,0.010850694444444444,43.315972222222214,0)" xlink:href="#aE"/><use transform="matrix(0.010850694444444444,0,0,0.010850694444444444,56.640624999999986,0)" xlink:href="#Y"/><use transform="matrix(0.010850694444444444,0,0,0.010850694444444444,65.00651041666666,0)" xlink:href="#aH"/><use transform="matrix(0.010850694444444444,0,0,0.010850694444444444,77.48480902777777,0)" xlink:href="#aF"/><use transform="matrix(0.010850694444444444,0,0,0.010850694444444444,96.95095486111111,0)" xlink:href="#aG"/><use transform="matrix(0.010850694444444444,0,0,0.010850694444444444,110.08029513888887,0)" xlink:href="#aL"/><use transform="matrix(0.010850694444444444,0,0,0.010850694444444444,122.77560763888887,0)" xlink:href="#X"/></g><path d="M52 0l541-1490h220L1361 0h-200l-149-416H398L254 0H52zm404-582h497c-103-290-145-390-251-756-108 377-145 460-246 756" id="bf"/><path d="M763 24c-353 0-583-224-583-531v-983h190v968c0 214 149 370 393 370 243 0 391-156 391-370v-968h190v983c0 307-230 531-581 531" id="bg"/><path d="M128 359l88-567h206L266 359H128" id="bh"/><g id="J"><use transform="matrix(0.010850694444444444,0,0,0.010850694444444444,0,0)" xlink:href="#aB"/><use transform="matrix(0.010850694444444444,0,0,0.010850694444444444,8.10546875,0)" xlink:href="#bf"/><use transform="matrix(0.010850694444444444,0,0,0.010850694444444444,23.00347222222222,0)" xlink:href="#bg"/><use transform="matrix(0.010850694444444444,0,0,0.010850694444444444,39.53993055555556,0)" xlink:href="#S"/><use transform="matrix(0.010850694444444444,0,0,0.010850694444444444,53.84114583333333,0)" xlink:href="#ac"/><use transform="matrix(0.010850694444444444,0,0,0.010850694444444444,70.83333333333334,0)" xlink:href="#ab"/><use transform="matrix(0.010850694444444444,0,0,0.010850694444444444,87.06597222222223,0)" xlink:href="#bh"/></g><g id="K"><use transform="matrix(0.010850694444444444,0,0,0.010850694444444444,0,0)" xlink:href="#bf"/><use transform="matrix(0.010850694444444444,0,0,0.010850694444444444,14.898003472222221,0)" xlink:href="#bg"/><use transform="matrix(0.010850694444444444,0,0,0.010850694444444444,31.434461805555554,0)" xlink:href="#U"/><use transform="matrix(0.010850694444444444,0,0,0.010850694444444444,45.627170138888886,0)" xlink:href="#S"/><use transform="matrix(0.010850694444444444,0,0,0.010850694444444444,59.928385416666664,0)" xlink:href="#ab"/><use transform="matrix(0.010850694444444444,0,0,0.010850694444444444,76.16102430555556,0)" xlink:href="#aO"/></g><path d="M513 14c-232 0-385-159-385-421v-711h300v659c0 139 76 222 202 222 127 0 217-86 217-234v-647h301V0H864l-4-232C797-74 683 14 513 14" id="bi"/><g id="L"><use transform="matrix(0.013020833333333334,0,0,0.013020833333333334,0,0)" xlink:href="#as"/><use transform="matrix(0.013020833333333334,0,0,0.013020833333333334,14.8828125,0)" xlink:href="#aj"/><use transform="matrix(0.013020833333333334,0,0,0.013020833333333334,31.028645833333336,0)" xlink:href="#aw"/><use transform="matrix(0.013020833333333334,0,0,0.013020833333333334,46.51041666666667,0)" xlink:href="#ao"/><use transform="matrix(0.013020833333333334,0,0,0.013020833333333334,56.27604166666667,0)" xlink:href="#bi"/><use transform="matrix(0.013020833333333334,0,0,0.013020833333333334,72.87760416666667,0)" xlink:href="#av"/><use transform="matrix(0.013020833333333334,0,0,0.013020833333333334,83.0859375,0)" xlink:href="#aj"/><use transform="matrix(0.013020833333333334,0,0,0.013020833333333334,98.97135416666667,0)" xlink:href="#bb"/><use transform="matrix(0.013020833333333334,0,0,0.013020833333333334,111.66666666666667,0)" xlink:href="#aw"/><use transform="matrix(0.013020833333333334,0,0,0.013020833333333334,127.1484375,0)" xlink:href="#ay"/><use transform="matrix(0.013020833333333334,0,0,0.013020833333333334,143.75,0)" xlink:href="#aw"/><use transform="matrix(0.013020833333333334,0,0,0.013020833333333334,159.23177083333334,0)" xlink:href="#an"/><use transform="matrix(0.013020833333333334,0,0,0.013020833333333334,166.73177083333334,0)" xlink:href="#ap"/><use transform="matrix(0.013020833333333334,0,0,0.013020833333333334,182.78645833333334,0)" xlink:href="#ak"/><use transform="matrix(0.013020833333333334,0,0,0.013020833333333334,197.72135416666669,0)" xlink:href="#al"/><use transform="matrix(0.013020833333333334,0,0,0.013020833333333334,204.94791666666669,0)" xlink:href="#ak"/><use transform="matrix(0.013020833333333334,0,0,0.013020833333333334,219.8828125,0)" xlink:href="#bd"/><use transform="matrix(0.013020833333333334,0,0,0.013020833333333334,228.7890625,0)" xlink:href="#be"/><use transform="matrix(0.013020833333333334,0,0,0.013020833333333334,245.1171875,0)" xlink:href="#ap"/></g><g id="M"><use transform="matrix(0.010850694444444444,0,0,0.010850694444444444,0,0)" xlink:href="#aR"/><use transform="matrix(0.010850694444444444,0,0,0.010850694444444444,20.07378472222222,0)" xlink:href="#X"/><use transform="matrix(0.010850694444444444,0,0,0.010850694444444444,33.029513888888886,0)" xlink:href="#W"/><use transform="matrix(0.010850694444444444,0,0,0.010850694444444444,40.40798611111111,0)" xlink:href="#aH"/><use transform="matrix(0.010850694444444444,0,0,0.010850694444444444,52.88628472222221,0)" xlink:href="#aC"/><use transform="matrix(0.010850694444444444,0,0,0.010850694444444444,66.49305555555554,0)" xlink:href="#aH"/><use transform="matrix(0.010850694444444444,0,0,0.010850694444444444,78.97135416666666,0)" xlink:href="#W"/><use transform="matrix(0.010850694444444444,0,0,0.010850694444444444,86.34982638888887,0)" xlink:href="#aH"/></g><g id="N"><use transform="matrix(0.010850694444444444,0,0,0.010850694444444444,0,0)" xlink:href="#R"/><use transform="matrix(0.010850694444444444,0,0,0.010850694444444444,12.239583333333332,0)" xlink:href="#X"/><use transform="matrix(0.010850694444444444,0,0,0.010850694444444444,25.1953125,0)" xlink:href="#W"/><use transform="matrix(0.010850694444444444,0,0,0.010850694444444444,32.248263888888886,0)" xlink:href="#aL"/><use transform="matrix(0.010850694444444444,0,0,0.010850694444444444,44.943576388888886,0)" xlink:href="#aV"/></g><g id="O"><use transform="matrix(0.010850694444444444,0,0,0.010850694444444444,0,0)" xlink:href="#Z"/><use transform="matrix(0.010850694444444444,0,0,0.010850694444444444,13.35720486111111,0)" xlink:href="#aa"/><use transform="matrix(0.010850694444444444,0,0,0.010850694444444444,30.09982638888889,0)" xlink:href="#ab"/><use transform="matrix(0.010850694444444444,0,0,0.010850694444444444,46.33246527777778,0)" xlink:href="#ac"/><use transform="matrix(0.010850694444444444,0,0,0.010850694444444444,63.32465277777778,0)" xlink:href="#ad"/><use transform="matrix(0.010850694444444444,0,0,0.010850694444444444,79.36197916666667,0)" xlink:href="#Z"/></g><g id="P"><use transform="matrix(0.008680555555555556,0,0,0.008680555555555556,0,0)" xlink:href="#aR"/><use transform="matrix(0.008680555555555556,0,0,0.008680555555555556,16.05902777777778,0)" xlink:href="#X"/><use transform="matrix(0.008680555555555556,0,0,0.008680555555555556,26.423611111111118,0)" xlink:href="#W"/><use transform="matrix(0.008680555555555556,0,0,0.008680555555555556,32.32638888888889,0)" xlink:href="#aH"/><use transform="matrix(0.008680555555555556,0,0,0.008680555555555556,42.309027777777786,0)" xlink:href="#aC"/><use transform="matrix(0.008680555555555556,0,0,0.008680555555555556,53.19444444444446,0)" xlink:href="#aH"/><use transform="matrix(0.008680555555555556,0,0,0.008680555555555556,63.17708333333334,0)" xlink:href="#W"/><use transform="matrix(0.008680555555555556,0,0,0.008680555555555556,69.07986111111113,0)" xlink:href="#aH"/></g><path d="M545 20c-263 0-445-160-445-446v-80h190v80c0 182 102 279 255 279 152 0 254-97 254-279v-1064h190v1064c0 286-181 446-444 446" id="bj"/><g id="Q"><use transform="matrix(0.008680555555555556,0,0,0.008680555555555556,0,0)" xlink:href="#bj"/><use transform="matrix(0.008680555555555556,0,0,0.008680555555555556,10.147569444444445,0)" xlink:href="#aP"/><use transform="matrix(0.008680555555555556,0,0,0.008680555555555556,21.553819444444443,0)" xlink:href="#ac"/><use transform="matrix(0.008680555555555556,0,0,0.008680555555555556,35.14756944444444,0)" xlink:href="#aa"/><use transform="matrix(0.008680555555555556,0,0,0.008680555555555556,48.541666666666664,0)" xlink:href="#af"/></g></defs></g></svg>